<svg width="24" height="20" viewBox="0 0 24 20" fill="none" xmlns="http://www.w3.org/2000/svg">
<path fill-rule="evenodd" clip-rule="evenodd" d="M0.799988 2C0.799988 1.57566 0.968559 1.16869 1.26862 0.868631C1.56868 0.568573 1.97564 0.400002 2.39999 0.400002H21.6C22.0243 0.400002 22.4313 0.568573 22.7314 0.868631C23.0314 1.16869 23.2 1.57566 23.2 2C23.2 2.42435 23.0314 2.83131 22.7314 3.13137C22.4313 3.43143 22.0243 3.6 21.6 3.6H2.39999C1.97564 3.6 1.56868 3.43143 1.26862 3.13137C0.968559 2.83131 0.799988 2.42435 0.799988 2ZM0.799988 10C0.799988 9.57565 0.968559 9.16869 1.26862 8.86863C1.56868 8.56857 1.97564 8.4 2.39999 8.4H21.6C22.0243 8.4 22.4313 8.56857 22.7314 8.86863C23.0314 9.16869 23.2 9.57565 23.2 10C23.2 10.4243 23.0314 10.8313 22.7314 11.1314C22.4313 11.4314 22.0243 11.6 21.6 11.6H2.39999C1.97564 11.6 1.56868 11.4314 1.26862 11.1314C0.968559 10.8313 0.799988 10.4243 0.799988 10ZM10.4 18C10.4 17.5757 10.5686 17.1687 10.8686 16.8686C11.1687 16.5686 11.5756 16.4 12 16.4H21.6C22.0243 16.4 22.4313 16.5686 22.7314 16.8686C23.0314 17.1687 23.2 17.5757 23.2 18C23.2 18.4243 23.0314 18.8313 22.7314 19.1314C22.4313 19.4314 22.0243 19.6 21.6 19.6H12C11.5756 19.6 11.1687 19.4314 10.8686 19.1314C10.5686 18.8313 10.4 18.4243 10.4 18Z" fill="#015AA9"/>
</svg>
