<svg width="57" height="55" viewBox="0 0 57 55" fill="none" xmlns="http://www.w3.org/2000/svg">
<ellipse cx="28.7637" cy="27.5" rx="28" ry="27.5" fill="#1097CF"/>
<path d="M17.6417 35.1632C17.0507 35.7437 17.0507 36.6848 17.6417 37.2653C18.2328 37.8458 19.191 37.8458 19.7821 37.2653L17.6417 35.1632ZM38.4313 18.3334C38.4313 17.5124 37.7537 16.8469 36.9179 16.8469L23.2968 16.8469C22.461 16.8469 21.7834 17.5124 21.7834 18.3334C21.7834 19.1543 22.461 19.8198 23.2968 19.8198H35.4044V31.7112C35.4044 32.5321 36.082 33.1976 36.9179 33.1976C37.7537 33.1976 38.4313 32.5321 38.4313 31.7112L38.4313 18.3334ZM19.7821 37.2653L37.9881 19.3844L35.8477 17.2823L17.6417 35.1632L19.7821 37.2653Z" fill="white"/>
</svg>
