<svg width="133" height="28" viewBox="0 0 133 28" fill="none" xmlns="http://www.w3.org/2000/svg">
<path d="M11.9283 3.11412C12.2175 2.17207 13.5511 2.17207 13.8402 3.11412L15.5601 8.71657C15.689 9.13648 16.0768 9.42311 16.5161 9.42311H22.1971C23.1521 9.42311 23.5637 10.6337 22.8067 11.2158L18.1147 14.824C17.784 15.0783 17.6459 15.5113 17.7684 15.9102L19.5372 21.6722C19.8231 22.6036 18.744 23.3523 17.9716 22.7584L13.4939 19.315C13.1345 19.0386 12.6341 19.0386 12.2747 19.315L7.79691 22.7584C7.02458 23.3523 5.94542 22.6036 6.23135 21.6722L8.00019 15.9102C8.12263 15.5113 7.98456 15.0783 7.65381 14.824L2.96182 11.2158C2.20484 10.6337 2.61649 9.42311 3.57141 9.42311H9.2525C9.69174 9.42311 10.0796 9.13648 10.2085 8.71657L11.9283 3.11412Z" fill="#FCBC0B"/>
<path d="M38.6506 3.11412C38.9398 2.17207 40.2733 2.17207 40.5625 3.11412L42.2824 8.71657C42.4113 9.13648 42.7991 9.42311 43.2383 9.42311H48.9194C49.8743 9.42311 50.286 10.6337 49.529 11.2158L44.837 14.824C44.5063 15.0783 44.3682 15.5113 44.4907 15.9102L46.2595 21.6722C46.5454 22.6036 45.4663 23.3523 44.6939 22.7584L40.2162 19.315C39.8568 19.0386 39.3564 19.0386 38.997 19.315L34.5192 22.7584C33.7469 23.3523 32.6677 22.6036 32.9536 21.6722L34.7225 15.9102C34.8449 15.5113 34.7069 15.0783 34.3761 14.824L29.6841 11.2158C28.9271 10.6337 29.3388 9.42311 30.2937 9.42311H35.9748C36.414 9.42311 36.8019 9.13648 36.9308 8.71657L38.6506 3.11412Z" fill="#FCBC0B"/>
<path d="M65.3742 3.11412C65.6634 2.17207 66.9969 2.17207 67.2861 3.11412L69.0059 8.71657C69.1348 9.13648 69.5227 9.42311 69.9619 9.42311H75.643C76.5979 9.42311 77.0096 10.6337 76.2526 11.2158L71.5606 14.824C71.2299 15.0783 71.0918 15.5113 71.2142 15.9102L72.9831 21.6722C73.269 22.6036 72.1898 23.3523 71.4175 22.7584L66.9397 19.315C66.5803 19.0386 66.0799 19.0386 65.7205 19.315L61.2428 22.7584C60.4704 23.3523 59.3913 22.6036 59.6772 21.6722L61.446 15.9102C61.5685 15.5113 61.4304 15.0783 61.0997 14.824L56.4077 11.2158C55.6507 10.6337 56.0624 9.42311 57.0173 9.42311H62.6984C63.1376 9.42311 63.5254 9.13648 63.6543 8.71657L65.3742 3.11412Z" fill="#FCBC0B"/>
<path d="M92.0969 3.11412C92.3861 2.17207 93.7196 2.17207 94.0088 3.11412L95.7287 8.71657C95.8576 9.13648 96.2454 9.42311 96.6846 9.42311H102.366C103.321 9.42311 103.732 10.6337 102.975 11.2158L98.2833 14.824C97.9526 15.0783 97.8145 15.5113 97.9369 15.9102L99.7058 21.6722C99.9917 22.6036 98.9126 23.3523 98.1402 22.7584L93.6625 19.315C93.303 19.0386 92.8027 19.0386 92.4433 19.315L87.9655 22.7584C87.1932 23.3523 86.114 22.6036 86.3999 21.6722L88.1688 15.9102C88.2912 15.5113 88.1531 15.0783 87.8224 14.824L83.1304 11.2158C82.3734 10.6337 82.7851 9.42311 83.74 9.42311H89.4211C89.8603 9.42311 90.2481 9.13648 90.377 8.71657L92.0969 3.11412Z" fill="#FCBC0B"/>
<path d="M118.82 3.11412C119.109 2.17207 120.443 2.17207 120.732 3.11412L122.452 8.71657C122.581 9.13648 122.969 9.42311 123.408 9.42311H129.089C130.044 9.42311 130.455 10.6337 129.698 11.2158L125.006 14.824C124.676 15.0783 124.538 15.5113 124.66 15.9102L126.429 21.6722C126.715 22.6036 125.636 23.3523 124.863 22.7584L120.386 19.315C120.026 19.0386 119.526 19.0386 119.166 19.315L114.689 22.7584C113.916 23.3523 112.837 22.6036 113.123 21.6722L114.892 15.9102C115.014 15.5113 114.876 15.0783 114.546 14.824L109.854 11.2158C109.097 10.6337 109.508 9.42311 110.463 9.42311H116.144C116.583 9.42311 116.971 9.13648 117.1 8.71657L118.82 3.11412Z" fill="#FCBC0B"/>
</svg>
